<?xml version="1.0" standalone="no"?>
<!DOCTYPE svg PUBLIC "-//W3C//DTD SVG 20010904//EN"
 "http://www.w3.org/TR/2001/REC-SVG-20010904/DTD/svg10.dtd">
<svg version="1.0" xmlns="http://www.w3.org/2000/svg"
 width="1620.000000pt" height="1620.000000pt" viewBox="0 0 1620.000000 1620.000000"
 preserveAspectRatio="xMidYMid meet">
<metadata>
Created by potrace 1.14, written by Peter Selinger 2001-2017
</metadata>
<g transform="translate(0.000000,1620.000000) scale(0.100000,-0.100000)"
fill="#000000" stroke="none">
<path d="M0 8100 l0 -8100 8100 0 8100 0 0 8100 0 8100 -8100 0 -8100 0 0
-8100z m7645 7340 c-3 -5 -33 -10 -66 -10 -38 0 -58 4 -54 10 3 6 33 10 66 10
38 0 58 -4 54 -10z m865 1 c27 -5 -92 -8 -290 -8 -184 0 -317 3 -295 7 55 10
530 10 585 1z m-127 -28 c-90 -2 -236 -2 -325 0 -90 1 -17 3 162 3 179 0 252
-2 163 -3z m-658 -23 c-3 -5 1 -11 7 -14 7 -3 -12 -4 -42 -1 -42 4 -51 3 -40
-6 12 -8 7 -9 -19 -5 -18 3 -70 7 -115 7 -73 1 -77 2 -36 10 25 4 69 8 98 8
28 1 52 4 52 9 0 4 22 5 50 4 27 -2 48 -8 45 -12z m928 13 c-13 -2 -35 -2 -50
0 -16 2 -5 4 22 4 28 0 40 -2 28 -4z m106 -29 c2 -2 -21 -4 -52 -4 -53 0 -74
-11 -44 -23 8 -3 78 -6 158 -7 169 -2 202 -5 207 -19 2 -7 37 -11 85 -11 45 0
107 -7 137 -16 31 -9 104 -17 168 -19 62 -1 116 -5 119 -9 4 -3 -1 -6 -11 -6
-10 0 -14 -5 -10 -11 4 -8 32 -10 80 -7 41 3 74 2 74 -1 0 -14 58 -30 100 -29
25 1 56 -3 70 -7 24 -8 24 -7 -5 18 -16 14 -24 27 -17 27 6 0 12 -5 12 -10 0
-6 7 -6 19 2 15 9 40 6 122 -14 69 -17 105 -22 108 -15 2 6 -1 13 -7 15 -7 2
-12 8 -12 13 0 5 11 2 25 -7 20 -13 39 -15 89 -10 55 5 65 4 81 -14 12 -13 31
-20 55 -20 21 0 43 -6 49 -14 7 -8 40 -15 82 -18 39 -3 76 -11 82 -17 6 -6 21
-11 33 -11 13 0 29 -6 37 -14 8 -8 32 -18 53 -22 21 -3 44 -10 49 -14 6 -4 55
-21 110 -39 55 -18 105 -37 111 -42 17 -14 123 -46 174 -52 40 -6 84 -23 130
-52 8 -5 20 -10 25 -12 27 -6 84 -30 96 -40 8 -6 27 -15 42 -18 15 -4 30 -11
33 -16 3 -5 13 -9 23 -9 10 0 24 -7 31 -15 7 -8 20 -15 30 -15 9 0 25 -9 35
-20 10 -12 25 -18 33 -15 7 3 27 -9 44 -25 16 -17 37 -30 47 -30 10 0 26 -9
35 -19 20 -22 265 -146 309 -157 15 -3 27 -10 27 -15 0 -5 19 -18 42 -30 23
-12 68 -43 100 -70 33 -27 63 -49 68 -49 5 0 24 -13 42 -29 18 -15 51 -38 73
-49 22 -11 58 -39 80 -61 21 -23 44 -41 50 -41 5 0 45 -31 88 -70 43 -38 84
-70 92 -70 9 0 55 -38 103 -85 48 -47 94 -85 102 -85 9 0 60 -45 115 -100 55
-55 105 -100 112 -100 18 0 611 -588 619 -613 3 -11 58 -74 120 -140 63 -66
114 -125 114 -131 0 -6 22 -34 48 -63 70 -78 92 -105 92 -115 0 -5 23 -35 50
-67 28 -32 50 -62 50 -68 0 -5 12 -20 26 -34 14 -13 37 -44 50 -69 28 -51 62
-102 97 -145 13 -16 41 -62 60 -102 20 -39 41 -74 46 -78 6 -3 32 -49 57 -103
26 -53 53 -104 60 -112 6 -8 33 -57 59 -107 26 -51 54 -98 61 -104 8 -6 14
-17 14 -24 0 -16 29 -73 41 -80 5 -4 9 -15 9 -25 0 -10 7 -26 16 -35 9 -8 18
-33 21 -55 3 -21 14 -47 24 -56 11 -9 19 -25 19 -34 0 -10 7 -31 15 -46 8 -16
15 -42 15 -57 0 -15 7 -30 15 -33 8 -4 15 -11 15 -18 0 -6 9 -17 20 -24 12 -7
17 -18 13 -27 -3 -9 2 -22 12 -29 11 -8 16 -20 12 -29 -4 -11 1 -20 13 -27 11
-6 20 -20 20 -31 0 -11 9 -39 21 -62 11 -23 23 -66 26 -94 4 -39 10 -54 24
-58 11 -4 19 -12 19 -20 0 -7 7 -26 15 -41 8 -16 15 -39 15 -52 0 -13 7 -30
15 -38 8 -9 15 -28 15 -43 0 -15 9 -44 20 -66 11 -22 20 -47 20 -57 0 -10 6
-29 14 -41 7 -12 16 -44 19 -72 3 -27 13 -63 21 -80 9 -16 16 -37 16 -46 0 -9
7 -30 15 -45 8 -16 15 -40 15 -53 0 -13 13 -43 30 -67 18 -28 31 -61 33 -87 2
-23 9 -51 15 -62 11 -20 44 -143 67 -250 7 -33 20 -94 30 -135 9 -41 21 -95
25 -120 4 -25 12 -58 18 -75 6 -16 16 -68 23 -115 6 -47 16 -93 21 -103 24
-46 53 -293 68 -577 13 -234 8 -903 -8 -1090 -16 -195 -42 -412 -52 -444 -6
-16 -10 -42 -10 -58 0 -16 -6 -61 -14 -101 -8 -40 -17 -96 -20 -126 -4 -29 -9
-58 -12 -63 -3 -5 -10 -37 -15 -71 -4 -34 -15 -93 -24 -132 -9 -38 -21 -88
-26 -110 -5 -22 -16 -71 -24 -110 -9 -38 -18 -79 -20 -90 -14 -70 -65 -238
-125 -415 -39 -113 -75 -218 -80 -235 -20 -70 -49 -145 -76 -198 -8 -16 -14
-35 -14 -43 0 -7 -11 -37 -24 -66 -14 -29 -49 -107 -79 -173 -60 -132 -163
-348 -180 -380 -6 -11 -42 -78 -80 -150 -38 -71 -75 -137 -81 -145 -23 -28
-126 -207 -126 -219 0 -6 -4 -11 -9 -11 -5 0 -12 -8 -16 -19 -3 -10 -16 -30
-28 -45 -13 -15 -38 -52 -57 -84 -18 -31 -44 -68 -56 -82 -12 -14 -34 -45 -49
-70 -31 -51 -218 -301 -277 -370 -186 -221 -482 -548 -562 -620 -21 -19 -86
-82 -145 -139 -121 -118 -356 -326 -453 -399 -36 -27 -111 -85 -166 -128 -54
-44 -145 -110 -201 -149 -55 -38 -130 -90 -165 -115 -80 -56 -182 -120 -311
-195 -55 -32 -111 -65 -125 -74 -84 -54 -361 -196 -555 -283 -102 -47 -120
-54 -310 -133 -60 -25 -119 -49 -130 -54 -11 -5 -42 -17 -70 -26 -27 -10 -68
-26 -90 -36 -63 -27 -210 -79 -226 -79 -8 0 -24 -7 -35 -15 -10 -8 -36 -15
-56 -15 -20 0 -43 -7 -51 -14 -8 -8 -52 -24 -98 -36 -46 -12 -111 -30 -144
-41 -33 -12 -121 -34 -195 -49 -74 -16 -155 -33 -180 -38 -73 -17 -148 -30
-260 -47 -58 -8 -127 -20 -155 -25 -389 -74 -1267 -111 -1765 -75 -129 9 -269
21 -310 26 -41 6 -118 14 -171 18 -53 5 -102 12 -110 16 -7 5 -45 12 -83 15
-68 7 -102 13 -261 45 -80 16 -256 54 -395 85 -95 22 -272 73 -385 111 -33 11
-82 27 -110 34 -27 8 -129 44 -225 80 -96 37 -193 73 -215 81 -22 9 -80 33
-130 55 -49 23 -132 59 -184 82 -125 55 -408 197 -498 250 -40 23 -111 64
-157 90 -47 26 -91 54 -99 61 -7 8 -33 24 -57 36 -45 23 -73 41 -287 185 -105
70 -468 342 -553 413 -210 177 -646 587 -731 689 -24 29 -91 105 -149 170 -58
65 -124 141 -145 168 -22 28 -42 52 -45 55 -15 14 -80 98 -80 103 0 3 -16 23
-35 44 -19 21 -41 50 -48 66 -6 15 -15 27 -18 27 -4 0 -24 26 -45 57 -22 32
-45 64 -51 71 -12 13 -72 98 -103 147 -8 13 -34 51 -57 85 -24 33 -43 67 -43
75 0 8 -4 15 -8 15 -5 0 -19 19 -32 43 -13 23 -30 48 -37 55 -7 7 -13 20 -13
28 0 7 -10 25 -22 40 -13 14 -30 38 -38 54 -8 16 -36 68 -61 117 -25 48 -53
102 -62 118 -9 17 -25 48 -35 70 -11 22 -27 54 -35 70 -9 17 -37 75 -63 130
-25 55 -59 125 -75 156 -16 31 -29 64 -29 73 0 9 -7 27 -14 39 -8 12 -29 63
-46 112 -18 50 -38 97 -46 106 -8 8 -14 24 -14 33 0 10 -7 34 -16 54 -9 21
-20 46 -25 57 -26 60 -101 293 -106 333 -3 17 -9 32 -13 32 -5 0 -11 19 -15
43 -4 23 -14 54 -21 69 -8 15 -14 43 -14 63 0 19 -4 35 -9 35 -5 0 -15 33 -21
73 -7 39 -21 97 -31 128 -11 30 -19 64 -19 74 0 10 -6 41 -14 69 -16 53 -43
180 -56 256 -5 25 -16 83 -25 130 -9 47 -20 123 -25 170 -4 47 -20 189 -34
315 -14 127 -25 277 -26 335 0 58 -3 195 -6 305 -4 110 -6 214 -6 230 1 17 5
161 11 320 14 439 12 406 21 365 5 -28 8 -16 12 55 4 50 9 106 12 125 2 19 10
89 17 155 6 66 16 125 20 131 5 7 9 25 8 40 -1 16 6 50 15 76 9 27 21 78 27
115 25 169 52 289 99 438 12 39 26 88 32 110 5 22 16 55 24 73 8 18 14 43 14
56 0 13 7 29 15 36 8 7 15 18 15 25 0 7 7 18 15 25 8 7 15 27 15 44 0 18 9 49
20 71 11 22 20 44 20 51 0 6 7 17 15 24 8 7 15 22 15 34 0 12 9 39 20 61 11
22 20 47 20 56 0 9 7 19 15 23 8 3 15 16 15 29 0 13 9 32 20 42 11 10 20 28
20 40 0 13 7 25 15 29 8 3 15 16 15 29 0 14 7 30 15 37 8 7 15 20 15 30 0 10
6 23 14 29 8 7 18 27 22 44 3 18 13 43 20 57 8 14 23 47 34 73 11 27 24 46 29
43 5 -3 11 4 14 16 6 21 7 22 27 3 17 -15 23 -16 33 -6 10 11 9 13 -3 9 -8 -2
-23 3 -33 13 -19 17 -19 19 6 71 13 29 28 64 32 78 14 47 40 65 47 33 3 -11
18 11 42 59 50 101 66 116 65 57 -1 -31 -8 -49 -22 -60 -11 -10 -19 -28 -19
-45 0 -16 -6 -38 -13 -50 -7 -11 -15 -29 -17 -40 -2 -10 -9 -25 -15 -32 -16
-17 -17 -42 -2 -42 6 0 8 -7 5 -16 -12 -31 21 4 34 36 7 17 16 30 21 30 5 0 9
9 9 19 0 11 7 26 15 35 8 8 15 19 15 25 0 5 15 36 34 68 18 32 37 68 40 81 4
12 12 20 17 17 5 -4 9 1 9 10 0 18 100 207 120 225 3 3 15 25 28 50 13 25 40
72 62 105 22 33 44 70 49 83 6 12 15 22 21 22 5 0 10 8 10 19 0 10 7 24 15 31
8 7 15 16 15 21 0 9 47 80 58 89 4 3 16 23 27 45 11 22 26 45 32 50 7 6 14 21
16 35 2 14 10 25 18 25 8 0 13 8 13 18 -1 9 4 17 12 17 7 0 17 15 22 33 5 17
14 31 21 30 6 -2 11 8 11 22 0 18 4 23 15 19 10 -4 15 0 15 13 0 11 9 30 20
43 11 13 20 27 20 32 0 5 5 6 11 3 6 -4 13 2 16 14 3 12 12 21 19 21 8 0 14
10 14 25 0 13 6 28 13 32 6 4 21 18 31 31 19 22 19 22 -6 20 -18 -2 -24 -7
-20 -17 3 -9 1 -12 -5 -8 -13 8 -66 -50 -58 -63 3 -4 -3 -14 -12 -21 -14 -12
-16 -12 -9 1 4 8 0 6 -8 -5 -9 -11 -14 -25 -12 -31 5 -13 -31 -51 -42 -46 -4
2 -8 -2 -11 -9 -2 -7 1 -9 8 -5 18 12 12 0 -11 -20 -12 -10 -18 -13 -14 -6 4
6 2 12 -4 12 -6 0 -8 6 -4 13 4 6 3 9 -1 4 -5 -4 -10 -17 -12 -30 -2 -12 -5
-31 -7 -42 -3 -11 -5 -24 -5 -28 -1 -5 -7 -7 -13 -4 -7 2 -22 -3 -32 -12 -18
-15 -18 -15 -8 5 6 11 18 26 26 34 9 7 16 17 16 22 0 5 -12 -4 -26 -21 -29
-34 -51 -42 -35 -12 9 16 7 17 -17 13 -22 -4 -25 -2 -15 9 7 7 13 19 13 27 0
8 18 34 40 58 22 24 40 49 40 55 0 7 20 34 45 60 25 26 45 54 45 62 0 7 18 31
41 52 22 23 38 47 36 56 -2 8 11 30 29 49 19 19 34 41 34 50 0 8 22 38 50 65
27 28 50 58 50 69 0 10 47 68 105 128 58 60 105 115 105 121 0 13 330 347 343
347 5 0 79 68 164 150 85 83 160 150 167 150 18 0 48 35 39 44 -5 4 -3 6 2 5
14 -5 75 33 69 42 -2 4 5 10 16 14 11 4 18 10 15 15 -3 4 9 13 26 19 17 6 28
15 24 21 -4 6 -3 10 2 9 20 -5 78 33 67 43 -2 3 9 11 25 18 17 7 47 32 66 56
20 24 48 47 63 51 15 3 48 28 74 55 27 26 55 48 64 48 9 0 34 16 55 35 22 19
45 35 52 35 7 0 26 13 42 30 15 16 40 32 55 35 16 3 36 15 46 26 9 10 23 19
30 19 7 0 25 11 41 24 15 13 44 31 63 41 19 9 44 25 55 35 11 9 37 20 59 23
21 3 46 13 56 22 9 8 24 15 33 15 9 0 18 4 21 9 4 5 85 49 182 97 96 48 177
92 180 96 3 4 16 8 29 8 14 0 29 9 35 20 8 14 21 20 47 20 25 0 45 9 70 30 18
17 42 30 52 30 10 0 24 7 31 15 7 8 28 17 49 20 20 3 44 10 53 16 10 5 27 9
37 9 11 0 22 4 25 9 3 5 22 12 42 16 20 3 44 10 53 14 22 11 80 31 116 40 17
4 44 15 62 24 18 10 50 17 72 17 21 0 41 5 43 11 2 6 35 13 73 16 39 2 79 8
90 13 20 8 112 32 190 50 22 5 52 12 67 16 21 5 29 2 34 -10 8 -21 21 -20 28
2 3 9 23 25 43 33 35 16 39 15 50 -1 8 -12 21 -15 44 -12 22 3 30 1 25 -7 -9
-14 -79 -14 -93 0 -6 6 -16 8 -22 4 -17 -10 -3 -25 17 -18 15 6 15 5 3 -11
-13 -16 -12 -17 10 -12 99 23 114 25 97 12 -10 -7 -16 -15 -14 -17 3 -2 -30
-3 -72 -3 -42 1 -68 -2 -57 -6 18 -6 17 -8 -10 -18 -29 -12 -29 -12 10 -7 35
4 37 3 15 -6 -13 -5 -34 -8 -46 -5 -25 7 -86 -12 -79 -24 2 -4 -6 -5 -19 -3
-13 3 -27 0 -30 -6 -5 -7 -1 -8 10 -4 11 4 15 2 11 -4 -4 -6 -22 -14 -42 -17
-31 -6 -33 -9 -22 -26 12 -20 12 -20 19 0 4 11 10 20 13 20 4 0 4 -4 1 -9 -3
-5 16 -6 42 -3 26 3 51 11 55 18 5 9 26 14 57 14 45 0 49 2 45 23 -4 21 -3 21
9 4 8 -10 17 -14 20 -8 3 5 25 12 49 16 64 11 70 12 100 24 16 6 46 11 67 11
21 0 40 5 42 12 3 7 32 14 76 16 40 2 72 9 72 14 0 5 4 7 9 3 5 -3 12 -1 16 5
3 5 41 10 84 10 55 0 82 4 90 14 8 9 46 16 114 21 56 4 107 12 114 17 7 5 56
12 110 15 54 3 107 11 118 17 11 6 85 14 165 18 80 4 170 12 200 18 36 8 185
12 422 12 239 0 366 4 362 10 -6 9 165 1 175 -8z m446 -24 c3 -5 -3 -10 -14
-10 -11 0 -23 5 -26 10 -3 6 3 10 14 10 11 0 23 -4 26 -10z m108 -17 c-7 -2
-21 -2 -30 0 -10 3 -4 5 12 5 17 0 24 -2 18 -5z m180 -30 c-7 -2 -19 -2 -25 0
-7 3 -2 5 12 5 14 0 19 -2 13 -5z m-2914 -29 c-11 -10 -30 -14 -60 -12 l-44 3
55 11 c30 7 57 12 60 13 2 0 -3 -6 -11 -15z m3059 -1 c-10 -2 -28 -2 -40 0
-13 2 -5 4 17 4 22 1 32 -1 23 -4z m-3001 -9 c-3 -3 -12 -4 -19 -1 -8 3 -5 6
6 6 11 1 17 -2 13 -5z m-42 -14 c-3 -5 -21 -9 -38 -9 l-32 2 35 7 c19 4 36 8
38 9 2 0 0 -3 -3 -9z m-82 -17 c-7 -2 -19 -2 -25 0 -7 3 -2 5 12 5 14 0 19 -2
13 -5z m-248 -93 c-3 -5 -16 -10 -28 -9 -21 0 -21 1 -2 9 28 12 37 12 30 0z
m-3830 -2577 c-16 -16 -25 -21 -20 -13 14 25 38 50 43 45 3 -2 -8 -17 -23 -32z
m-309 -271 c-15 -15 -16 -15 -16 4 0 28 24 52 28 28 2 -9 -3 -24 -12 -32z m44
4 c0 -2 -7 -9 -15 -16 -13 -11 -14 -10 -9 4 5 14 24 23 24 12z m-60 -90 c-27
-26 -30 -27 -20 -8 16 32 44 60 49 49 2 -5 -11 -23 -29 -41z m25 -4 l-28 -27
24 31 c13 17 26 30 28 27 3 -2 -8 -16 -24 -31z m35 4 c0 -2 -8 -10 -17 -17
-16 -13 -17 -12 -4 4 13 16 21 21 21 13z m-124 -94 c-16 -15 -25 -21 -21 -13
12 21 39 48 44 44 3 -2 -8 -16 -23 -31z m-356 -565 c0 -2 -10 -12 -21 -23 -22
-19 -22 -19 -10 4 10 18 31 31 31 19z m-76 -323 c3 -8 2 -12 -4 -9 -6 3 -10
10 -10 16 0 14 7 11 14 -7z"/>
<path d="M9858 15229 c12 -12 98 -22 87 -11 -5 5 -29 12 -52 14 -23 2 -39 0
-35 -3z"/>
<path d="M6118 15183 c7 -3 16 -2 19 1 4 3 -2 6 -13 5 -11 0 -14 -3 -6 -6z"/>
<path d="M6245 15180 c-8 -13 15 -13 35 0 12 8 11 10 -7 10 -12 0 -25 -4 -28
-10z"/>
<path d="M9863 15183 c9 -2 23 -2 30 0 6 3 -1 5 -18 5 -16 0 -22 -2 -12 -5z"/>
<path d="M9948 15183 c7 -3 16 -2 19 1 4 3 -2 6 -13 5 -11 0 -14 -3 -6 -6z"/>
<path d="M10018 15163 c7 -3 16 -2 19 1 4 3 -2 6 -13 5 -11 0 -14 -3 -6 -6z"/>
<path d="M6025 15061 c-23 -5 -26 -8 -13 -13 9 -4 24 0 35 7 10 8 16 14 13 13
-3 0 -18 -3 -35 -7z"/>
<path d="M6085 15060 c3 -5 10 -10 16 -10 5 0 9 5 9 10 0 6 -7 10 -16 10 -8 0
-12 -4 -9 -10z"/>
<path d="M5986 15038 c5 -8 2 -9 -9 -5 -10 3 -17 2 -17 -3 0 -16 17 -20 35 -6
17 12 17 13 1 19 -11 5 -15 3 -10 -5z"/>
<path d="M5915 15020 c3 -5 13 -10 21 -10 8 0 14 5 14 10 0 6 -9 10 -21 10
-11 0 -17 -4 -14 -10z"/>
<path d="M5895 15010 c6 -10 4 -12 -8 -7 -10 3 -17 2 -17 -3 0 -5 -7 -7 -15
-4 -8 4 -15 1 -15 -5 0 -17 57 -13 63 4 4 8 1 17 -5 21 -7 5 -8 2 -3 -6z"/>
<path d="M5761 14971 c-11 -7 -9 -10 8 -16 25 -8 36 -2 26 14 -8 13 -15 14
-34 2z"/>
<path d="M7720 14471 c-69 -3 -130 -9 -137 -14 -6 -4 -69 -11 -140 -17 -187
-13 -315 -31 -338 -46 -11 -8 -43 -14 -71 -14 -28 0 -65 -7 -80 -15 -16 -8
-36 -15 -44 -15 -9 0 -20 -4 -25 -8 -15 -12 -70 -28 -160 -46 -114 -24 -467
-133 -550 -170 -72 -33 -132 -55 -162 -61 -18 -4 -49 -18 -70 -32 -21 -14 -61
-34 -88 -44 -28 -10 -81 -31 -117 -48 -36 -17 -71 -31 -76 -31 -27 0 -498
-247 -706 -370 -42 -25 -94 -55 -116 -67 -23 -12 -56 -33 -75 -47 -18 -14 -37
-26 -41 -26 -11 0 -230 -148 -244 -165 -7 -8 -19 -15 -26 -15 -8 0 -23 -9 -33
-19 -11 -11 -44 -36 -73 -56 -29 -20 -55 -40 -58 -44 -3 -4 -34 -29 -70 -55
-36 -27 -72 -55 -80 -63 -8 -7 -43 -35 -76 -61 -34 -27 -83 -69 -109 -95 -25
-26 -51 -47 -56 -47 -14 0 -379 -361 -451 -445 -77 -90 -151 -175 -210 -242
-27 -29 -48 -57 -48 -62 0 -5 -27 -38 -60 -73 -33 -34 -62 -71 -65 -81 -4 -9
-24 -36 -45 -60 -43 -47 -90 -113 -90 -127 0 -4 -3 -10 -7 -12 -10 -4 -53 -65
-53 -74 0 -4 -20 -31 -45 -60 -25 -28 -45 -57 -45 -63 0 -6 -13 -26 -30 -44
-17 -19 -30 -40 -30 -47 0 -7 -12 -29 -28 -49 -37 -50 -44 -62 -102 -175 -27
-54 -50 -105 -50 -112 0 -8 -4 -14 -8 -14 -10 0 -52 -90 -52 -112 0 -9 -7 -18
-15 -22 -8 -3 -15 -15 -15 -27 0 -12 -20 -63 -45 -115 -25 -51 -45 -101 -45
-111 0 -10 -6 -27 -14 -38 -7 -11 -19 -38 -26 -60 -7 -22 -23 -62 -35 -90 -12
-27 -43 -115 -69 -195 -68 -212 -62 -189 -116 -430 -11 -52 -27 -120 -35 -150
-7 -30 -19 -82 -25 -115 -7 -33 -18 -89 -25 -125 -32 -160 -45 -238 -45 -271
0 -21 -11 -104 -24 -185 -28 -168 -34 -226 -41 -369 -3 -55 -10 -176 -14 -270
-10 -180 2 -644 18 -750 6 -33 22 -150 36 -260 14 -110 32 -218 39 -240 8 -22
17 -62 21 -90 14 -111 109 -518 131 -560 8 -15 14 -32 14 -38 0 -7 9 -34 20
-62 10 -27 26 -77 35 -110 21 -75 42 -138 65 -190 10 -22 29 -71 43 -110 48
-133 75 -200 113 -280 20 -44 44 -98 53 -120 30 -74 230 -459 286 -550 158
-260 205 -335 284 -447 25 -35 60 -85 78 -111 18 -27 65 -90 105 -140 40 -50
90 -113 112 -141 94 -123 206 -247 415 -460 264 -269 405 -394 745 -658 36
-28 167 -117 301 -205 161 -106 198 -129 242 -152 23 -11 58 -32 77 -45 94
-64 580 -292 777 -366 42 -15 86 -33 97 -39 26 -14 309 -109 377 -127 28 -7
97 -27 155 -43 101 -30 278 -75 330 -84 14 -3 68 -14 120 -25 52 -11 124 -25
160 -32 36 -6 85 -16 110 -20 47 -10 202 -31 350 -49 281 -34 835 -40 1105
-12 178 18 354 41 440 57 44 8 107 19 140 25 131 23 414 91 605 144 25 7 68
18 95 25 28 7 66 18 85 25 19 6 103 34 185 61 227 73 415 152 680 284 283 140
479 255 765 447 435 292 815 629 1195 1058 39 43 78 87 87 96 10 10 28 34 40
52 13 19 48 66 80 104 212 261 459 621 574 838 15 28 45 82 67 120 42 71 182
359 219 450 11 28 35 84 54 126 35 76 55 130 160 429 80 226 176 589 213 805
6 33 18 101 26 150 9 50 21 119 26 155 6 36 14 85 19 110 25 126 52 586 49
837 -4 395 -68 1080 -119 1273 -5 20 -12 64 -15 98 -4 34 -13 86 -21 114 -8
29 -21 80 -29 113 -31 120 -106 350 -145 445 -13 30 -34 87 -47 125 -13 39
-39 104 -57 145 -19 41 -46 104 -61 140 -76 178 -221 442 -369 673 -203 314
-201 311 -265 398 -26 37 -62 86 -79 110 -16 24 -38 54 -48 67 -11 12 -39 50
-64 83 -25 33 -74 95 -110 137 -36 42 -68 81 -72 87 -46 70 -490 519 -653 661
-49 43 -96 84 -103 91 -6 6 -21 15 -32 18 -11 3 -20 10 -20 14 0 4 -26 25 -57
47 -32 21 -62 44 -68 50 -5 6 -23 19 -39 30 -16 10 -41 28 -56 39 -58 42 -348
233 -403 266 -32 19 -89 51 -125 73 -37 21 -88 55 -114 76 -44 35 -523 280
-547 280 -6 0 -64 26 -129 59 -64 32 -146 68 -182 81 -36 12 -78 29 -94 37
-15 8 -47 21 -70 28 -22 7 -79 28 -126 45 -47 18 -112 38 -145 45 -72 16 -127
36 -149 54 -16 13 -43 21 -156 47 -36 8 -70 21 -76 29 -6 9 -27 15 -48 15 -23
0 -39 5 -42 15 -4 11 -21 15 -55 15 -27 0 -57 4 -67 9 -21 11 -126 29 -257 45
-55 6 -106 15 -113 20 -8 4 -40 8 -72 7 -31 0 -93 6 -135 14 -61 12 -187 16
-554 19 -262 2 -532 1 -601 -3z m-4064 -5772 c373 -52 679 -324 780 -694 8
-27 14 -56 14 -62 0 -10 -54 -13 -237 -13 l-238 0 -30 57 c-45 86 -126 163
-220 209 -80 39 -81 39 -200 39 -113 0 -124 -2 -185 -31 -113 -54 -179 -118
-255 -249 -9 -14 -34 7 -178 150 -92 91 -167 171 -167 176 0 16 82 118 132
165 214 201 498 293 784 253z m5910 -187 c91 -151 185 -305 442 -727 47 -77
104 -171 127 -210 23 -38 120 -198 215 -355 95 -157 186 -306 201 -333 l29
-47 -277 2 -277 3 -55 90 c-118 195 -308 507 -391 645 -48 80 -138 228 -200
330 -62 102 -132 217 -155 255 -23 39 -99 164 -169 278 -69 115 -126 210 -126
213 0 2 114 4 254 4 159 0 257 4 261 10 3 6 9 10 13 10 4 0 52 -75 108 -168z
m-3318 -79 l-3 -228 -502 -3 c-277 -1 -503 -6 -503 -10 0 -4 48 -56 108 -115
l107 -107 395 -2 395 -3 3 -227 2 -228 -487 0 -488 0 -277 277 -278 278 0 297
0 298 765 0 765 0 -2 -227z m2100 0 l-3 -228 -354 -3 -355 -2 -223 222 c-123
122 -223 226 -223 230 0 4 261 8 580 8 l580 0 -2 -227z m2831 205 c-7 -13 -40
-68 -74 -123 -34 -55 -89 -145 -122 -200 -33 -55 -131 -217 -218 -360 -87
-143 -200 -331 -253 -418 -52 -87 -100 -156 -106 -154 -13 4 -256 405 -256
422 0 11 288 493 467 783 l44 72 265 0 265 0 -12 -22z m541 -315 l0 -338 -225
225 -225 225 0 112 0 113 225 0 225 0 0 -337z m2098 110 l-3 -228 -342 -3
-343 -2 0 -333 0 -332 -225 225 -225 225 0 107 0 108 -342 2 -343 3 -3 228 -2
227 915 0 915 0 -2 -227z m-6616 0 c119 -119 215 -220 212 -225 -3 -4 -85 -8
-182 -8 -157 0 -181 -2 -208 -19 -68 -41 -67 -149 0 -190 32 -20 47 -21 409
-21 425 0 485 -6 605 -65 183 -91 312 -301 312 -510 0 -140 -64 -296 -160
-394 -70 -71 -120 -104 -206 -137 l-64 -24 -700 0 -700 0 0 220 0 220 654 2
654 3 26 24 c39 37 50 81 31 128 -28 70 -14 67 -480 74 -466 6 -467 6 -595 77
-191 105 -300 308 -287 532 13 239 158 429 387 507 36 12 67 23 69 23 3 0 103
-98 223 -217z m4518 -1125 l0 -468 -225 0 -225 0 0 692 0 693 225 -225 225
-225 0 -467z m-8863 630 c187 -189 191 -194 198 -243 19 -144 125 -288 263
-359 44 -23 148 -46 207 -46 69 0 169 25 228 58 69 37 156 127 196 201 l32 61
235 0 c271 0 250 12 208 -122 -96 -303 -325 -531 -625 -622 -79 -24 -99 -26
-274 -26 -175 0 -195 2 -274 26 -327 100 -571 364 -647 699 -24 105 -24 302
-1 400 20 82 49 165 57 165 3 0 91 -87 197 -192z m6392 -55 c66 -111 121 -205
121 -208 0 -3 -84 -143 -186 -313 -103 -169 -216 -355 -252 -414 l-65 -108
-264 0 c-144 0 -263 2 -263 5 0 2 84 143 187 312 583 962 577 953 589 940 6
-6 66 -103 133 -214z m-4287 -261 l207 -209 3 -64 3 -64 538 -3 537 -2 0 -220
0 -220 -765 0 -765 0 0 505 c0 479 1 505 18 496 9 -5 110 -104 224 -219z
m8168 -539 l0 -243 -225 0 -225 0 0 467 0 468 225 -225 225 -225 0 -242z"/>
<path d="M2774 12958 l-29 -33 33 29 c17 17 32 31 32 33 0 8 -8 1 -36 -29z"/>
<path d="M2677 12852 c-33 -34 -35 -38 -16 -39 12 -1 18 3 16 10 -3 7 7 24 21
40 39 41 21 32 -21 -11z"/>
<path d="M2569 12723 l-34 -38 38 34 c20 19 37 36 37 38 0 8 -8 0 -41 -34z"/>
<path d="M2305 12469 c-4 -6 -5 -12 -2 -15 2 -3 7 2 10 11 7 17 1 20 -8 4z"/>
<path d="M2340 12470 c-8 -5 -12 -12 -9 -15 4 -3 12 1 19 10 14 17 11 19 -10
5z"/>
<path d="M2223 12423 c-27 -31 -33 -63 -7 -42 19 15 48 69 37 68 -5 0 -18 -12
-30 -26z"/>
<path d="M1551 11254 c0 -11 3 -14 6 -6 3 7 2 16 -1 19 -3 4 -6 -2 -5 -13z"/>
<path d="M1556 11093 c-6 -14 -5 -15 5 -6 7 7 10 15 7 18 -3 3 -9 -2 -12 -12z"/>
<path d="M1455 11040 c-3 -5 -2 -10 4 -10 5 0 13 5 16 10 3 6 2 10 -4 10 -5 0
-13 -4 -16 -10z"/>
<path d="M1510 11005 c8 -11 15 -21 16 -23 1 -2 5 5 8 15 4 9 4 14 0 10 -4 -4
-14 -1 -23 6 -14 11 -15 10 -1 -8z"/>
<path d="M1500 10979 c0 -5 -4 -7 -10 -4 -15 9 -11 -7 6 -30 16 -20 16 -19 9
4 -5 16 -4 21 4 17 7 -5 9 -1 5 8 -7 18 -14 21 -14 5z"/>
</g>
</svg>
