<?xml version="1.0" encoding="UTF-8"?>
<svg xmlns="http://www.w3.org/2000/svg" xmlns:xlink="http://www.w3.org/1999/xlink" width="30pt" height="30.000001pt" viewBox="0 0 30 30.000001" version="1.2">
<defs>
<clipPath id="clip1">
  <path d="M 1 8 L 20 8 L 20 26.855469 L 1 26.855469 Z M 1 8 "/>
</clipPath>
</defs>
<g id="surface1">
<path style=" stroke:none;fill-rule:nonzero;fill:rgb(85.488892%,0%,21.569824%);fill-opacity:1;" d="M 9.992188 8.847656 C 9.992188 8.789062 9.996094 8.726562 9.996094 8.667969 C 10.160156 4.539062 13.855469 1.566406 17.582031 0.90625 C 22.699219 -0.00390625 29.492188 3.394531 28.300781 9.453125 C 27.664062 12.699219 25.378906 15.640625 22.140625 16.539062 C 21.246094 16.789062 20.238281 16.949219 19.3125 16.949219 C 17.371094 16.949219 15.839844 15.933594 14.054688 17.230469 C 13.53125 17.609375 12.992188 18.941406 12.164062 18.648438 C 11.558594 18.433594 11.433594 17.199219 11.390625 16.683594 C 11.179688 14.046875 9.945312 11.507812 9.992188 8.847656 Z M 9.992188 8.847656 "/>
<path style=" stroke:none;fill-rule:nonzero;fill:rgb(100%,100%,100%);fill-opacity:1;" d="M 24.785156 8.890625 C 24.785156 9.046875 24.757812 9.203125 24.695312 9.347656 C 24.636719 9.496094 24.550781 9.625 24.4375 9.738281 C 24.324219 9.851562 24.195312 9.9375 24.050781 9.996094 C 23.902344 10.058594 23.75 10.089844 23.59375 10.089844 C 23.433594 10.089844 23.28125 10.058594 23.136719 9.996094 C 22.988281 9.9375 22.859375 9.851562 22.75 9.738281 C 22.636719 9.625 22.550781 9.496094 22.488281 9.347656 C 22.429688 9.203125 22.398438 9.046875 22.398438 8.890625 C 22.398438 8.730469 22.429688 8.578125 22.488281 8.429688 C 22.550781 8.28125 22.636719 8.152344 22.75 8.039062 C 22.859375 7.925781 22.988281 7.839844 23.136719 7.78125 C 23.28125 7.71875 23.433594 7.6875 23.59375 7.6875 C 23.75 7.6875 23.902344 7.71875 24.050781 7.78125 C 24.195312 7.839844 24.324219 7.925781 24.4375 8.039062 C 24.550781 8.152344 24.636719 8.28125 24.695312 8.429688 C 24.757812 8.578125 24.785156 8.730469 24.785156 8.890625 Z M 24.785156 8.890625 "/>
<path style=" stroke:none;fill-rule:nonzero;fill:rgb(100%,100%,100%);fill-opacity:1;" d="M 20.570312 8.890625 C 20.570312 9.046875 20.539062 9.203125 20.480469 9.347656 C 20.417969 9.496094 20.332031 9.625 20.21875 9.738281 C 20.109375 9.851562 19.980469 9.9375 19.832031 10 C 19.6875 10.058594 19.535156 10.089844 19.375 10.089844 C 19.21875 10.089844 19.066406 10.058594 18.917969 10 C 18.773438 9.9375 18.644531 9.851562 18.53125 9.738281 C 18.417969 9.625 18.332031 9.496094 18.273438 9.347656 C 18.210938 9.203125 18.179688 9.046875 18.179688 8.890625 C 18.179688 8.730469 18.210938 8.578125 18.273438 8.429688 C 18.332031 8.28125 18.417969 8.152344 18.53125 8.039062 C 18.644531 7.925781 18.773438 7.839844 18.917969 7.78125 C 19.066406 7.71875 19.21875 7.6875 19.375 7.6875 C 19.535156 7.6875 19.6875 7.71875 19.832031 7.78125 C 19.980469 7.839844 20.109375 7.925781 20.21875 8.039062 C 20.332031 8.152344 20.417969 8.28125 20.480469 8.429688 C 20.539062 8.578125 20.570312 8.730469 20.570312 8.890625 Z M 20.570312 8.890625 "/>
<path style=" stroke:none;fill-rule:nonzero;fill:rgb(100%,100%,100%);fill-opacity:1;" d="M 16.574219 8.890625 C 16.574219 9.046875 16.546875 9.203125 16.484375 9.347656 C 16.425781 9.496094 16.339844 9.625 16.226562 9.738281 C 16.113281 9.851562 15.984375 9.9375 15.839844 9.996094 C 15.691406 10.058594 15.539062 10.089844 15.382812 10.089844 C 15.222656 10.089844 15.070312 10.058594 14.925781 9.996094 C 14.777344 9.9375 14.648438 9.851562 14.539062 9.738281 C 14.425781 9.625 14.339844 9.496094 14.277344 9.347656 C 14.21875 9.203125 14.1875 9.046875 14.1875 8.890625 C 14.1875 8.730469 14.21875 8.578125 14.277344 8.429688 C 14.339844 8.28125 14.425781 8.152344 14.539062 8.039062 C 14.648438 7.925781 14.777344 7.839844 14.925781 7.78125 C 15.070312 7.71875 15.222656 7.6875 15.382812 7.6875 C 15.539062 7.6875 15.691406 7.71875 15.839844 7.78125 C 15.984375 7.839844 16.113281 7.925781 16.226562 8.039062 C 16.339844 8.152344 16.425781 8.28125 16.484375 8.429688 C 16.546875 8.578125 16.574219 8.730469 16.574219 8.890625 Z M 16.574219 8.890625 "/>
<g clip-path="url(#clip1)" clip-rule="nonzero">
<path style=" stroke:none;fill-rule:nonzero;fill:rgb(92.939758%,92.939758%,92.939758%);fill-opacity:1;" d="M 19.996094 16.765625 C 19.996094 16.703125 19.996094 16.644531 19.992188 16.582031 C 19.828125 12.453125 16.132812 9.484375 12.40625 8.820312 C 7.292969 7.910156 0.5 11.3125 1.6875 17.371094 C 2.324219 20.613281 4.613281 23.554688 7.847656 24.457031 C 8.742188 24.703125 9.75 24.863281 10.679688 24.863281 C 12.617188 24.863281 14.148438 23.851562 15.933594 25.144531 C 16.457031 25.523438 16.996094 26.855469 17.824219 26.5625 C 18.429688 26.347656 18.554688 25.113281 18.597656 24.601562 C 18.808594 21.960938 20.042969 19.421875 19.996094 16.765625 Z M 19.996094 16.765625 "/>
</g>
<path style=" stroke:none;fill-rule:nonzero;fill:rgb(100%,100%,100%);fill-opacity:1;" d="M 7.589844 16.804688 C 7.589844 16.964844 7.558594 17.117188 7.5 17.265625 C 7.4375 17.410156 7.351562 17.539062 7.242188 17.652344 C 7.128906 17.765625 7 17.851562 6.851562 17.914062 C 6.707031 17.972656 6.554688 18.003906 6.398438 18.003906 C 6.238281 18.003906 6.085938 17.972656 5.941406 17.914062 C 5.792969 17.851562 5.664062 17.765625 5.550781 17.652344 C 5.441406 17.539062 5.355469 17.410156 5.292969 17.265625 C 5.234375 17.117188 5.203125 16.964844 5.203125 16.804688 C 5.203125 16.644531 5.234375 16.492188 5.292969 16.34375 C 5.355469 16.199219 5.441406 16.066406 5.550781 15.957031 C 5.664062 15.84375 5.792969 15.757812 5.941406 15.695312 C 6.085938 15.632812 6.238281 15.605469 6.398438 15.605469 C 6.554688 15.605469 6.707031 15.632812 6.851562 15.695312 C 7 15.757812 7.128906 15.84375 7.242188 15.957031 C 7.351562 16.066406 7.4375 16.199219 7.5 16.34375 C 7.558594 16.492188 7.589844 16.644531 7.589844 16.804688 Z M 7.589844 16.804688 "/>
<path style=" stroke:none;fill-rule:nonzero;fill:rgb(100%,100%,100%);fill-opacity:1;" d="M 11.808594 16.804688 C 11.808594 16.964844 11.777344 17.117188 11.71875 17.265625 C 11.65625 17.410156 11.570312 17.539062 11.457031 17.652344 C 11.347656 17.765625 11.21875 17.851562 11.070312 17.914062 C 10.925781 17.976562 10.773438 18.003906 10.613281 18.003906 C 10.457031 18.003906 10.304688 17.976562 10.15625 17.914062 C 10.011719 17.851562 9.882812 17.765625 9.769531 17.652344 C 9.65625 17.539062 9.570312 17.410156 9.511719 17.265625 C 9.449219 17.117188 9.417969 16.964844 9.417969 16.804688 C 9.417969 16.644531 9.449219 16.492188 9.511719 16.34375 C 9.570312 16.199219 9.65625 16.066406 9.769531 15.957031 C 9.882812 15.84375 10.011719 15.757812 10.15625 15.695312 C 10.304688 15.632812 10.457031 15.605469 10.613281 15.605469 C 10.773438 15.605469 10.925781 15.632812 11.070312 15.695312 C 11.21875 15.757812 11.347656 15.84375 11.457031 15.957031 C 11.570312 16.066406 11.65625 16.199219 11.71875 16.34375 C 11.777344 16.492188 11.808594 16.644531 11.808594 16.804688 Z M 11.808594 16.804688 "/>
<path style=" stroke:none;fill-rule:nonzero;fill:rgb(100%,100%,100%);fill-opacity:1;" d="M 15.800781 16.804688 C 15.800781 16.964844 15.769531 17.117188 15.710938 17.265625 C 15.648438 17.410156 15.5625 17.539062 15.453125 17.652344 C 15.339844 17.765625 15.210938 17.851562 15.066406 17.914062 C 14.917969 17.972656 14.765625 18.003906 14.609375 18.003906 C 14.449219 18.003906 14.296875 17.972656 14.152344 17.914062 C 14.003906 17.851562 13.875 17.765625 13.761719 17.652344 C 13.652344 17.539062 13.566406 17.410156 13.503906 17.265625 C 13.445312 17.117188 13.414062 16.964844 13.414062 16.804688 C 13.414062 16.644531 13.445312 16.492188 13.503906 16.34375 C 13.566406 16.199219 13.652344 16.066406 13.761719 15.957031 C 13.875 15.84375 14.003906 15.757812 14.152344 15.695312 C 14.296875 15.632812 14.449219 15.605469 14.609375 15.605469 C 14.765625 15.605469 14.917969 15.632812 15.066406 15.695312 C 15.210938 15.757812 15.339844 15.84375 15.453125 15.957031 C 15.5625 16.066406 15.648438 16.199219 15.710938 16.34375 C 15.769531 16.492188 15.800781 16.644531 15.800781 16.804688 Z M 15.800781 16.804688 "/>
</g>
</svg>
