<?xml version="1.0" encoding="UTF-8"?>
<svg xmlns="http://www.w3.org/2000/svg" xmlns:xlink="http://www.w3.org/1999/xlink" width="30pt" height="30.000001pt" viewBox="0 0 30 30.000001" version="1.2">
<defs>
<clipPath id="clip1">
  <path d="M 0.484375 0 L 29.378906 0 L 29.378906 28.824219 L 0.484375 28.824219 Z M 0.484375 0 "/>
</clipPath>
<clipPath id="clip2">
  <path d="M 12 4 L 25 4 L 25 28.824219 L 12 28.824219 Z M 12 4 "/>
</clipPath>
</defs>
<g id="surface1">
<g clip-path="url(#clip1)" clip-rule="nonzero">
<path style=" stroke:none;fill-rule:nonzero;fill:rgb(23.919678%,35.289001%,59.609985%);fill-opacity:1;" d="M 27.785156 28.820312 C 28.664062 28.820312 29.378906 28.109375 29.378906 27.226562 L 29.378906 1.523438 C 29.378906 0.640625 28.664062 -0.0742188 27.785156 -0.0742188 L 2.078125 -0.0742188 C 1.199219 -0.0742188 0.484375 0.640625 0.484375 1.523438 L 0.484375 27.226562 C 0.484375 28.109375 1.199219 28.820312 2.078125 28.820312 Z M 27.785156 28.820312 "/>
</g>
<g clip-path="url(#clip2)" clip-rule="nonzero">
<path style=" stroke:none;fill-rule:nonzero;fill:rgb(100%,100%,100%);fill-opacity:1;" d="M 20.421875 28.820312 L 20.421875 17.632812 L 24.175781 17.632812 L 24.738281 13.273438 L 20.421875 13.273438 L 20.421875 10.488281 C 20.421875 9.226562 20.769531 8.363281 22.582031 8.363281 L 24.890625 8.363281 L 24.890625 4.464844 C 24.492188 4.410156 23.121094 4.292969 21.527344 4.292969 C 18.195312 4.292969 15.917969 6.324219 15.917969 10.054688 L 15.917969 13.273438 L 12.152344 13.273438 L 12.152344 17.632812 L 15.917969 17.632812 L 15.917969 28.820312 Z M 20.421875 28.820312 "/>
</g>
</g>
</svg>
