<?xml version="1.0" encoding="UTF-8"?>
<svg xmlns="http://www.w3.org/2000/svg" xmlns:xlink="http://www.w3.org/1999/xlink" width="30pt" height="30.000001pt" viewBox="0 0 30 30.000001" version="1.2">
<defs>
<clipPath id="clip1">
  <path d="M 0.484375 0 L 29.515625 0 L 29.515625 29.03125 L 0.484375 29.03125 Z M 0.484375 0 "/>
</clipPath>
<clipPath id="clip2">
  <path d="M 0.484375 0.21875 L 29.515625 0.21875 L 29.515625 29.03125 L 0.484375 29.03125 Z M 0.484375 0.21875 "/>
</clipPath>
</defs>
<g id="surface1">
<g clip-path="url(#clip1)" clip-rule="nonzero">
<path style=" stroke:none;fill-rule:nonzero;fill:rgb(100%,100%,100%);fill-opacity:1;" d="M 0.484375 0 L 29.515625 0 L 29.515625 36.289062 L 0.484375 36.289062 Z M 0.484375 0 "/>
<path style=" stroke:none;fill-rule:nonzero;fill:rgb(100%,100%,100%);fill-opacity:1;" d="M 0.484375 0 L 29.515625 0 L 29.515625 29.03125 L 0.484375 29.03125 Z M 0.484375 0 "/>
<path style=" stroke:none;fill-rule:nonzero;fill:rgb(100%,100%,100%);fill-opacity:1;" d="M 0.484375 0 L 29.515625 0 L 29.515625 29.03125 L 0.484375 29.03125 Z M 0.484375 0 "/>
</g>
<g clip-path="url(#clip2)" clip-rule="nonzero">
<path style=" stroke:none;fill-rule:evenodd;fill:rgb(0%,0%,0%);fill-opacity:1;" d="M 15.113281 0.523438 C 7.035156 0.523438 0.484375 7.074219 0.484375 15.152344 C 0.484375 21.617188 4.675781 27.101562 10.488281 29.035156 C 11.222656 29.171875 11.488281 28.71875 11.488281 28.332031 C 11.488281 27.984375 11.476562 27.0625 11.46875 25.84375 C 7.398438 26.726562 6.539062 23.882812 6.539062 23.882812 C 5.875 22.191406 4.917969 21.742188 4.917969 21.742188 C 3.589844 20.832031 5.015625 20.851562 5.015625 20.851562 C 6.484375 20.957031 7.257812 22.359375 7.257812 22.359375 C 8.5625 24.597656 10.683594 23.949219 11.515625 23.578125 C 11.648438 22.632812 12.027344 21.988281 12.445312 21.621094 C 9.195312 21.25 5.78125 19.996094 5.78125 14.390625 C 5.78125 12.792969 6.351562 11.488281 7.285156 10.464844 C 7.136719 10.09375 6.632812 8.605469 7.429688 6.589844 C 7.429688 6.589844 8.660156 6.199219 11.453125 8.089844 C 12.621094 7.765625 13.871094 7.605469 15.117188 7.597656 C 16.359375 7.605469 17.609375 7.765625 18.777344 8.089844 C 21.570312 6.199219 22.796875 6.589844 22.796875 6.589844 C 23.597656 8.605469 23.09375 10.09375 22.941406 10.464844 C 23.878906 11.488281 24.445312 12.792969 24.445312 14.390625 C 24.445312 20.011719 21.023438 21.246094 17.765625 21.609375 C 18.292969 22.058594 18.757812 22.953125 18.757812 24.316406 C 18.757812 26.273438 18.742188 27.851562 18.742188 28.332031 C 18.742188 28.722656 19.003906 29.175781 19.746094 29.035156 C 25.558594 27.09375 29.746094 21.617188 29.746094 15.152344 C 29.746094 7.074219 23.195312 0.523438 15.113281 0.523438 Z M 15.113281 0.523438 "/>
</g>
</g>
</svg>
