<?xml version="1.0" encoding="UTF-8"?>
<svg xmlns="http://www.w3.org/2000/svg" xmlns:xlink="http://www.w3.org/1999/xlink" width="30pt" height="30.000001pt" viewBox="0 0 30 30.000001" version="1.2">
<defs>
<clipPath id="clip1">
  <path d="M 0.484375 0 L 29.449219 0 L 29.449219 28.964844 L 0.484375 28.964844 Z M 0.484375 0 "/>
</clipPath>
</defs>
<g id="surface1">
<g clip-path="url(#clip1)" clip-rule="nonzero">
<path style=" stroke:none;fill-rule:evenodd;fill:rgb(0%,0%,0%);fill-opacity:1;" d="M 14.964844 0.300781 C 6.96875 0.300781 0.484375 6.785156 0.484375 14.785156 C 0.484375 21.183594 4.632812 26.609375 10.386719 28.527344 C 11.113281 28.660156 11.375 28.210938 11.375 27.828125 C 11.375 27.484375 11.363281 26.574219 11.359375 25.367188 C 7.328125 26.242188 6.480469 23.421875 6.480469 23.421875 C 5.820312 21.75 4.871094 21.304688 4.871094 21.304688 C 3.554688 20.40625 4.972656 20.425781 4.972656 20.425781 C 6.425781 20.527344 7.1875 21.917969 7.1875 21.917969 C 8.480469 24.132812 10.578125 23.492188 11.402344 23.121094 C 11.535156 22.1875 11.910156 21.546875 12.324219 21.1875 C 9.105469 20.820312 5.726562 19.578125 5.726562 14.027344 C 5.726562 12.449219 6.292969 11.15625 7.21875 10.140625 C 7.070312 9.777344 6.570312 8.304688 7.359375 6.308594 C 7.359375 6.308594 8.574219 5.917969 11.34375 7.792969 C 12.496094 7.472656 13.734375 7.3125 14.96875 7.304688 C 16.195312 7.3125 17.4375 7.472656 18.59375 7.792969 C 21.359375 5.917969 22.570312 6.308594 22.570312 6.308594 C 23.363281 8.304688 22.863281 9.777344 22.714844 10.140625 C 23.644531 11.15625 24.203125 12.449219 24.203125 14.027344 C 24.203125 19.59375 20.816406 20.816406 17.589844 21.175781 C 18.109375 21.621094 18.574219 22.503906 18.574219 23.855469 C 18.574219 25.792969 18.554688 27.351562 18.554688 27.828125 C 18.554688 28.214844 18.816406 28.667969 19.550781 28.523438 C 25.300781 26.605469 29.449219 21.179688 29.449219 14.785156 C 29.449219 6.785156 22.964844 0.300781 14.964844 0.300781 Z M 14.964844 0.300781 "/>
</g>
</g>
</svg>
