<?xml version="1.0" encoding="UTF-8"?>
<svg xmlns="http://www.w3.org/2000/svg" xmlns:xlink="http://www.w3.org/1999/xlink" width="30pt" height="30.000001pt" viewBox="0 0 30 30.000001" version="1.2">
<defs>
<clipPath id="clip1">
  <path d="M 0.484375 0 L 29.515625 0 L 29.515625 28.730469 L 0.484375 28.730469 Z M 0.484375 0 "/>
</clipPath>
</defs>
<g id="surface1">
<path style=" stroke:none;fill-rule:nonzero;fill:rgb(0%,29.019165%,67.83905%);fill-opacity:1;" d="M 16.097656 12.804688 L 16.097656 12.761719 C 16.089844 12.777344 16.082031 12.792969 16.070312 12.804688 Z M 16.097656 12.804688 "/>
<g clip-path="url(#clip1)" clip-rule="nonzero">
<path style=" stroke:none;fill-rule:nonzero;fill:rgb(0%,29.019165%,67.83905%);fill-opacity:1;" d="M 27.378906 -0.113281 L 2.625 -0.113281 C 1.441406 -0.113281 0.480469 0.804688 0.480469 1.9375 L 0.480469 26.476562 C 0.480469 27.609375 1.441406 28.527344 2.625 28.527344 L 27.378906 28.527344 C 28.566406 28.527344 29.527344 27.609375 29.527344 26.476562 L 29.527344 1.9375 C 29.527344 0.804688 28.566406 -0.113281 27.378906 -0.113281 Z M 9.285156 23.863281 L 4.898438 23.863281 L 4.898438 10.929688 L 9.285156 10.929688 Z M 7.089844 9.164062 L 7.0625 9.164062 C 5.589844 9.164062 4.636719 8.171875 4.636719 6.929688 C 4.636719 5.660156 5.621094 4.695312 7.121094 4.695312 C 8.621094 4.695312 9.542969 5.660156 9.574219 6.929688 C 9.574219 8.171875 8.621094 9.164062 7.089844 9.164062 Z M 25.105469 23.863281 L 20.71875 23.863281 L 20.71875 16.945312 C 20.71875 15.207031 20.082031 14.019531 18.496094 14.019531 C 17.285156 14.019531 16.5625 14.820312 16.246094 15.59375 C 16.128906 15.867188 16.101562 16.253906 16.101562 16.640625 L 16.101562 23.863281 L 11.714844 23.863281 C 11.714844 23.863281 11.769531 12.140625 11.714844 10.929688 L 16.101562 10.929688 L 16.101562 12.761719 C 16.683594 11.878906 17.726562 10.625 20.054688 10.625 C 22.941406 10.625 25.105469 12.472656 25.105469 16.445312 Z M 25.105469 23.863281 "/>
</g>
</g>
</svg>
