<?xml version="1.0" encoding="UTF-8"?>
<svg xmlns="http://www.w3.org/2000/svg" xmlns:xlink="http://www.w3.org/1999/xlink" width="30pt" height="30.000001pt" viewBox="0 0 30 30.000001" version="1.2">
<defs>
<clipPath id="clip1">
  <path d="M 0.554688 0 L 29.515625 0 L 29.515625 29.03125 L 0.554688 29.03125 Z M 0.554688 0 "/>
</clipPath>
<clipPath id="clip2">
  <path d="M 0.554688 3 L 26 3 L 26 29.03125 L 0.554688 29.03125 Z M 0.554688 3 "/>
</clipPath>
</defs>
<g id="surface1">
<g clip-path="url(#clip1)" clip-rule="nonzero">
<path style=" stroke:none;fill-rule:evenodd;fill:rgb(34.118652%,71.759033%,92.158508%);fill-opacity:1;" d="M 15.113281 0 C 23.148438 0 29.667969 6.519531 29.667969 14.554688 C 29.667969 22.589844 23.148438 29.113281 15.113281 29.113281 C 7.078125 29.113281 0.554688 22.589844 0.554688 14.554688 C 0.554688 6.519531 7.078125 0 15.113281 0 "/>
</g>
<g clip-path="url(#clip2)" clip-rule="nonzero">
<path style=" stroke:none;fill-rule:evenodd;fill:rgb(28.239441%,56.858826%,82.749939%);fill-opacity:1;" d="M 5.394531 3.71875 C 3.085938 6.296875 1.675781 9.703125 1.675781 13.4375 C 1.675781 21.472656 8.199219 27.992188 16.230469 27.992188 C 19.964844 27.992188 23.371094 26.582031 25.949219 24.273438 C 23.28125 27.242188 19.414062 29.113281 15.113281 29.113281 C 7.078125 29.113281 0.554688 22.589844 0.554688 14.554688 C 0.554688 10.253906 2.425781 6.386719 5.394531 3.71875 "/>
</g>
<path style=" stroke:none;fill-rule:evenodd;fill:rgb(97.648621%,96.469116%,97.648621%);fill-opacity:1;" d="M 5.425781 15.570312 C 5.199219 15.5 5.039062 15.296875 5.027344 15.0625 C 5.015625 14.824219 5.15625 14.605469 5.375 14.515625 C 9.105469 12.980469 18.917969 8.9375 22.003906 7.667969 C 22.195312 7.589844 22.414062 7.617188 22.570312 7.75 C 22.730469 7.878906 22.804688 8.082031 22.769531 8.28125 C 22.253906 11.171875 20.773438 19.472656 20.300781 22.125 C 20.265625 22.3125 20.140625 22.46875 19.972656 22.542969 C 19.800781 22.617188 19.601562 22.601562 19.445312 22.5 C 17.90625 21.507812 14.269531 19.171875 12.871094 18.273438 C 12.734375 18.183594 12.640625 18.039062 12.621094 17.875 C 12.601562 17.710938 12.648438 17.546875 12.761719 17.425781 C 14.179688 15.875 18.472656 11.195312 18.472656 11.195312 C 18.472656 11.195312 11.089844 15.808594 9.726562 16.660156 C 9.59375 16.746094 9.425781 16.769531 9.269531 16.722656 C 8.613281 16.527344 6.769531 15.972656 5.425781 15.570312 "/>
</g>
</svg>
