<?xml version="1.0" encoding="UTF-8"?>
<svg xmlns="http://www.w3.org/2000/svg" xmlns:xlink="http://www.w3.org/1999/xlink" width="33pt" height="30.000001pt" viewBox="0 0 33 30.000001" version="1.2">
<defs>
<clipPath id="clip1">
  <path d="M 0.53125 2.6875 L 32.464844 2.6875 L 32.464844 25.1875 L 0.53125 25.1875 Z M 0.53125 2.6875 "/>
</clipPath>
</defs>
<g id="surface1">
<g clip-path="url(#clip1)" clip-rule="nonzero">
<path style=" stroke:none;fill-rule:nonzero;fill:rgb(91.369629%,11.369324%,0%);fill-opacity:1;" d="M 32.148438 7.550781 C 32.148438 7.550781 31.835938 5.34375 30.878906 4.371094 C 29.667969 3.09375 28.304688 3.085938 27.679688 3.011719 C 23.210938 2.6875 16.507812 2.6875 16.507812 2.6875 L 16.492188 2.6875 C 16.492188 2.6875 9.789062 2.6875 5.320312 3.011719 C 4.695312 3.085938 3.332031 3.09375 2.121094 4.371094 C 1.164062 5.34375 0.851562 7.550781 0.851562 7.550781 C 0.851562 7.550781 0.53125 10.140625 0.53125 12.734375 L 0.53125 15.164062 C 0.53125 17.757812 0.851562 20.347656 0.851562 20.347656 C 0.851562 20.347656 1.164062 22.554688 2.121094 23.527344 C 3.335938 24.804688 4.929688 24.765625 5.640625 24.898438 C 8.195312 25.144531 16.5 25.222656 16.5 25.222656 C 16.5 25.222656 23.210938 25.210938 27.679688 24.886719 C 28.304688 24.8125 29.667969 24.804688 30.878906 23.527344 C 31.835938 22.554688 32.148438 20.347656 32.148438 20.347656 C 32.148438 20.347656 32.46875 17.753906 32.46875 15.164062 L 32.46875 12.734375 C 32.46875 10.140625 32.148438 7.550781 32.148438 7.550781 Z M 13.203125 18.109375 L 13.203125 9.109375 L 21.832031 13.625 Z M 13.203125 18.109375 "/>
</g>
<path style=" stroke:none;fill-rule:nonzero;fill:rgb(100%,100%,100%);fill-opacity:1;" d="M 13.203125 9.109375 L 13.203125 18.109375 L 21.832031 13.625 Z M 13.203125 9.109375 "/>
</g>
</svg>
