<?xml version="1.0" encoding="UTF-8"?>
<svg xmlns="http://www.w3.org/2000/svg" xmlns:xlink="http://www.w3.org/1999/xlink" width="30pt" height="30.000001pt" viewBox="0 0 30 30.000001" version="1.2">
<defs>
<clipPath id="clip1">
  <path d="M 0.484375 3.761719 L 29.515625 3.761719 L 29.515625 23.984375 L 0.484375 23.984375 Z M 0.484375 3.761719 "/>
</clipPath>
</defs>
<g id="surface1">
<g clip-path="url(#clip1)" clip-rule="nonzero">
<path style=" stroke:none;fill-rule:nonzero;fill:rgb(91.369629%,11.369324%,0%);fill-opacity:1;" d="M 29.226562 8.125 C 29.226562 8.125 28.941406 6.144531 28.070312 5.273438 C 26.96875 4.128906 25.730469 4.121094 25.164062 4.054688 C 21.101562 3.765625 15.003906 3.765625 15.003906 3.765625 L 14.996094 3.765625 C 14.996094 3.765625 8.898438 3.765625 4.835938 4.054688 C 4.269531 4.121094 3.03125 4.128906 1.929688 5.273438 C 1.058594 6.144531 0.773438 8.125 0.773438 8.125 C 0.773438 8.125 0.484375 10.449219 0.484375 12.777344 L 0.484375 14.957031 C 0.484375 17.285156 0.773438 19.609375 0.773438 19.609375 C 0.773438 19.609375 1.058594 21.589844 1.929688 22.464844 C 3.035156 23.609375 4.484375 23.574219 5.128906 23.695312 C 7.449219 23.914062 15 23.984375 15 23.984375 C 15 23.984375 21.101562 23.976562 25.164062 23.683594 C 25.734375 23.613281 26.96875 23.609375 28.070312 22.464844 C 28.941406 21.589844 29.226562 19.609375 29.226562 19.609375 C 29.226562 19.609375 29.515625 17.28125 29.515625 14.957031 L 29.515625 12.777344 C 29.515625 10.449219 29.226562 8.125 29.226562 8.125 Z M 12 17.601562 L 12 9.523438 L 19.847656 13.578125 Z M 12 17.601562 "/>
</g>
<path style=" stroke:none;fill-rule:nonzero;fill:rgb(100%,100%,100%);fill-opacity:1;" d="M 12 9.523438 L 12 17.601562 L 19.847656 13.578125 Z M 12 9.523438 "/>
</g>
</svg>
