<?xml version="1.0" standalone="no"?>
<!DOCTYPE svg PUBLIC "-//W3C//DTD SVG 20010904//EN"
 "http://www.w3.org/TR/2001/REC-SVG-20010904/DTD/svg10.dtd">
<svg version="1.0" xmlns="http://www.w3.org/2000/svg"
 width="1620.000000pt" height="1620.000000pt" viewBox="0 0 1620.000000 1620.000000"
 preserveAspectRatio="xMidYMid meet">
<metadata>
Created by potrace 1.14, written by Peter Selinger 2001-2017
</metadata>
<g transform="translate(0.000000,1620.000000) scale(0.100000,-0.100000)"
fill="#000000" stroke="none">
<path d="M7749 16186 c-2 -2 -60 -7 -129 -10 -214 -13 -232 -14 -340 -26 -58
-6 -125 -14 -150 -17 -25 -2 -56 -6 -70 -8 -97 -13 -135 -18 -209 -31 -45 -8
-87 -12 -91 -9 -5 3 -11 1 -15 -5 -4 -6 -10 -8 -14 -6 -4 3 -23 1 -42 -4 -48
-13 -88 -20 -134 -25 -22 -3 -76 -13 -120 -24 -44 -11 -81 -20 -83 -20 -33 -7
-59 -13 -116 -26 -38 -9 -77 -18 -85 -20 -9 -2 -77 -20 -151 -39 -74 -20 -142
-38 -150 -41 -94 -24 -403 -126 -417 -138 -7 -5 -13 -7 -13 -3 0 6 -106 -32
-295 -107 -71 -28 -133 -50 -137 -49 -5 1 -8 -3 -8 -10 0 -6 -3 -8 -6 -5 -4 4
-19 0 -33 -8 -14 -7 -75 -35 -136 -61 -60 -27 -113 -52 -116 -57 -3 -5 -9 -9
-12 -8 -17 1 -197 -86 -352 -169 -39 -21 -97 -52 -130 -70 -33 -17 -73 -40
-90 -50 -16 -10 -41 -25 -55 -33 -136 -76 -220 -128 -439 -273 -73 -49 -141
-93 -150 -99 -9 -5 -18 -13 -21 -16 -3 -3 -27 -20 -55 -39 -27 -19 -52 -36
-55 -40 -3 -3 -21 -17 -40 -30 -19 -14 -39 -28 -45 -32 -5 -5 -28 -22 -50 -39
-22 -16 -47 -35 -55 -42 -9 -7 -60 -47 -115 -91 -55 -43 -107 -86 -115 -95 -8
-9 -31 -28 -50 -42 -19 -15 -44 -35 -55 -45 -11 -11 -61 -55 -110 -99 -119
-106 -172 -155 -328 -312 -138 -137 -173 -174 -297 -312 -102 -115 -112 -126
-134 -153 -11 -13 -42 -50 -70 -83 -28 -33 -54 -64 -59 -70 -4 -5 -17 -21 -28
-35 -12 -14 -33 -41 -48 -60 -14 -19 -28 -37 -31 -40 -3 -3 -17 -21 -30 -40
-13 -19 -27 -37 -31 -40 -21 -16 -300 -418 -395 -570 -22 -36 -56 -90 -75
-120 -51 -81 -68 -112 -82 -142 -6 -16 -15 -28 -19 -28 -4 0 -8 -4 -8 -9 0 -5
-22 -47 -48 -93 -47 -81 -89 -162 -197 -378 -43 -86 -120 -256 -210 -465 -28
-66 -153 -394 -160 -420 -1 -5 -5 -17 -8 -25 -8 -20 -70 -212 -73 -225 -1 -5
-18 -62 -37 -125 -56 -185 -88 -311 -82 -320 3 -4 1 -10 -3 -12 -7 -3 -73
-277 -87 -363 -3 -16 -10 -52 -15 -80 -5 -27 -12 -63 -15 -80 -3 -16 -7 -41
-10 -55 -2 -13 -7 -42 -10 -65 -3 -22 -10 -67 -15 -100 -5 -33 -12 -77 -15
-97 -3 -21 -8 -55 -11 -75 -3 -21 -7 -67 -10 -102 -2 -35 -7 -67 -9 -71 -2 -4
-7 -42 -10 -86 -4 -43 -8 -99 -10 -124 -27 -306 -27 -1186 -1 -1229 4 -5 2
-12 -4 -16 -6 -4 -8 -11 -4 -16 5 -9 9 -38 18 -159 3 -30 10 -95 16 -145 6
-49 13 -110 16 -135 8 -70 14 -111 24 -170 5 -30 12 -75 15 -100 3 -25 8 -56
10 -70 23 -107 38 -188 38 -207 0 -7 4 -13 9 -13 5 0 6 -4 3 -10 -3 -5 -1 -29
6 -52 6 -24 13 -56 16 -73 2 -16 14 -66 25 -110 11 -44 21 -89 23 -100 1 -11
5 -27 8 -35 8 -25 30 -104 34 -122 1 -9 14 -56 29 -105 14 -48 27 -92 28 -98
9 -43 95 -307 106 -327 6 -10 10 -22 10 -28 0 -11 94 -268 115 -315 7 -16 27
-64 43 -105 17 -41 46 -110 66 -153 19 -42 35 -80 35 -82 2 -16 197 -411 250
-506 17 -30 41 -74 53 -99 13 -25 25 -47 28 -50 3 -3 11 -16 18 -29 41 -72 57
-99 73 -126 11 -16 26 -44 33 -61 8 -17 22 -36 30 -44 9 -7 16 -17 16 -22 0
-5 22 -42 50 -83 27 -41 50 -79 50 -85 0 -5 3 -10 8 -10 4 0 16 -16 26 -35 11
-19 23 -35 28 -35 4 0 8 -6 8 -13 0 -7 9 -24 19 -37 11 -14 50 -68 87 -120 55
-79 100 -140 157 -215 6 -8 98 -126 160 -205 17 -21 109 -133 122 -146 5 -6
33 -37 60 -70 28 -32 68 -78 91 -101 23 -24 39 -43 37 -43 -2 0 36 -41 84 -91
172 -178 296 -299 306 -299 6 0 8 -3 5 -6 -4 -3 12 -22 35 -42 75 -66 119
-106 168 -153 27 -26 49 -45 49 -42 0 2 10 -6 23 -19 21 -21 77 -69 147 -127
37 -31 37 -31 145 -116 55 -43 107 -84 115 -92 25 -22 110 -83 116 -83 2 0 14
-8 25 -19 11 -10 45 -36 77 -57 31 -21 59 -41 62 -44 7 -7 317 -211 360 -237
285 -172 399 -235 620 -346 91 -45 167 -85 168 -89 2 -5 10 -8 17 -8 7 0 26
-7 42 -15 36 -19 138 -64 250 -111 49 -20 108 -45 131 -56 24 -10 94 -37 155
-60 62 -22 126 -46 142 -53 17 -8 44 -17 60 -21 17 -4 35 -10 40 -14 6 -3 30
-12 55 -19 25 -6 54 -16 65 -21 29 -13 229 -72 385 -114 74 -21 151 -41 170
-46 114 -31 466 -105 600 -126 19 -3 73 -11 120 -19 47 -8 105 -17 130 -20 97
-12 117 -15 170 -20 30 -3 69 -8 85 -10 92 -12 163 -18 390 -32 150 -10 801
-10 955 0 196 12 382 27 390 32 4 2 61 9 175 20 44 4 112 14 175 25 30 5 87
14 125 21 39 6 77 13 87 15 9 1 38 6 65 10 54 9 62 11 66 14 1 1 16 4 32 6 17
3 100 21 185 40 85 20 165 37 177 39 11 2 36 8 55 14 42 14 176 51 206 57 40
8 332 101 479 153 168 59 280 102 448 172 91 38 382 172 389 180 6 5 18 9 28
9 10 0 18 4 18 10 0 5 3 9 8 8 7 -2 54 21 192 94 170 91 226 122 241 134 8 8
18 14 21 14 10 0 213 122 219 132 3 5 8 8 11 6 6 -4 322 203 326 214 2 4 8 8
13 8 6 0 15 5 22 10 7 6 37 28 67 50 30 22 60 44 67 50 7 5 15 10 18 10 3 0
14 8 24 17 10 10 44 36 75 58 30 22 55 43 56 48 0 4 5 7 10 7 6 0 18 6 26 12
32 27 54 45 190 156 41 33 138 117 162 139 12 13 25 23 28 23 3 0 23 18 45 40
22 22 41 40 43 40 17 0 496 482 606 610 12 14 43 49 68 79 26 30 54 62 62 71
8 8 33 38 55 65 22 28 42 52 45 55 9 8 93 114 115 144 11 16 25 33 31 40 11
12 148 199 186 254 13 18 28 39 33 45 6 7 33 46 60 87 27 41 53 80 58 85 4 6
23 35 42 65 19 30 39 60 45 67 5 7 10 15 10 18 0 4 7 13 15 22 8 8 13 19 10
24 -4 5 -2 9 2 9 5 0 19 20 33 45 14 25 28 45 33 45 4 0 6 4 2 9 -3 5 -1 12 4
16 15 9 120 194 216 382 28 54 53 100 58 101 4 2 7 8 7 12 0 5 26 62 58 127
64 132 181 391 188 418 2 8 33 85 69 170 5 11 9 23 10 28 2 4 3 8 5 10 1 1 3
9 5 17 2 8 18 51 35 95 18 44 33 87 35 95 3 8 25 76 50 150 26 74 49 145 51
157 2 12 9 35 15 50 10 27 14 39 24 85 2 12 11 42 19 67 36 108 125 491 152
646 3 22 9 53 24 130 5 28 12 68 15 90 4 22 10 65 15 95 5 30 11 73 14 95 3
22 8 60 12 85 3 25 7 62 9 83 2 21 6 55 9 75 9 59 19 172 32 387 16 245 10
936 -11 1150 -2 22 -6 72 -9 110 -4 39 -8 81 -10 95 -3 14 -7 50 -11 80 -3 30
-8 71 -10 90 -3 19 -7 51 -9 70 -4 31 -18 121 -31 201 -3 14 -7 41 -9 60 -3
19 -10 59 -16 89 -6 30 -15 78 -20 105 -9 57 -49 244 -66 308 -3 12 -7 31 -9
42 -2 11 -4 20 -5 20 -1 0 -3 7 -5 15 -1 8 -10 44 -20 80 -9 36 -18 72 -20 80
-2 8 -4 15 -5 15 -1 0 -3 7 -5 15 -2 8 -11 42 -20 75 -9 33 -18 65 -19 70 -1
6 -11 37 -21 70 -10 33 -20 65 -21 70 -1 6 -11 35 -22 65 -10 30 -19 59 -20
63 0 8 -16 52 -32 92 -5 11 -14 38 -21 60 -6 22 -14 45 -18 50 -3 6 -7 18 -8
27 -1 9 -13 41 -26 70 -13 29 -24 56 -25 61 -1 4 -10 28 -22 53 -11 26 -20 51
-20 56 0 5 -9 25 -19 46 -10 20 -20 42 -21 47 -6 25 -132 311 -174 394 -15 28
-27 54 -28 58 -1 5 -22 46 -46 93 -42 81 -63 119 -149 278 -20 37 -44 79 -55
94 -10 14 -18 29 -18 32 0 12 -118 204 -228 369 -40 59 -72 111 -72 116 0 5
-4 11 -8 13 -7 2 -69 87 -107 146 -5 8 -15 23 -22 31 -7 9 -40 54 -74 101 -35
47 -70 90 -78 97 -9 7 -13 13 -9 13 7 0 -11 24 -47 64 -6 6 -26 31 -45 56 -19
25 -42 52 -52 61 -10 9 -18 19 -18 23 0 7 -70 89 -209 245 -145 164 -362 384
-527 537 -141 130 -160 147 -186 168 -13 11 -52 45 -88 76 -36 31 -101 85
-145 120 -44 36 -81 68 -83 72 -2 5 -10 8 -17 8 -8 0 -18 6 -22 13 -4 7 -33
31 -63 52 -30 22 -62 45 -70 52 -8 7 -46 35 -85 63 -38 28 -77 56 -86 63 -8 7
-23 17 -31 22 -9 6 -37 25 -62 43 -26 17 -51 32 -56 32 -4 0 -10 4 -12 8 -3 7
-156 112 -163 112 -2 0 -31 18 -64 40 -33 22 -63 40 -66 40 -4 0 -25 13 -48
28 -23 16 -49 32 -57 36 -8 4 -33 18 -55 31 -22 14 -51 30 -65 37 -14 7 -27
15 -30 18 -10 10 -149 82 -365 189 -210 105 -246 122 -360 171 -27 12 -63 27
-80 35 -48 21 -185 75 -325 129 -73 27 -357 126 -380 131 -8 2 -46 13 -85 25
-38 12 -71 22 -72 22 -2 0 -17 4 -35 9 -50 15 -197 57 -206 58 -4 1 -20 5 -37
11 -16 5 -43 11 -60 14 -16 2 -31 5 -32 6 -2 2 -6 3 -10 4 -71 16 -125 29
-153 36 -19 5 -60 13 -90 19 -30 6 -66 14 -80 17 -14 3 -38 7 -55 9 -16 2 -52
9 -80 15 -60 14 -122 24 -152 24 -13 1 -23 5 -23 9 0 5 -4 6 -9 2 -5 -3 -31 0
-58 6 -26 6 -70 12 -98 15 -27 2 -60 5 -72 8 -12 3 -50 7 -85 11 -35 3 -76 8
-91 11 -16 2 -58 7 -95 9 -37 3 -87 7 -112 10 -25 3 -81 7 -125 10 -92 6 -881
16 -886 11z"/>
</g>
</svg>
